<?xml version="1.0" encoding="utf-8"?>
<!-- Generator: Adobe Illustrator 19.2.1, SVG Export Plug-In . SVG Version: 6.00 Build 0)  -->
<svg version="1.1" xmlns="http://www.w3.org/2000/svg" xmlns:xlink="http://www.w3.org/1999/xlink" x="0px" y="0px" width="24px"
	 height="24px" viewBox="0 0 24 24" enable-background="new 0 0 24 24" xml:space="preserve">
<g id="Filled_Icon">
	<g>
		<path d="M8.025,8.001C8.017,8,8.008,8,8,8c-4.411,0-8,3.588-8,8c0,4.411,3.589,8,8,8s8-3.589,8-8c0-0.009-0.002-0.017-0.002-0.026
			C11.712,15.723,8.277,12.287,8.025,8.001z M8,15.5c1.102,0,2,0.897,2,2c0,0.929-0.641,1.705-1.5,1.929V20
			c0,0.275-0.224,0.5-0.5,0.5c-0.276,0-0.5-0.225-0.5-0.5v-0.571c-0.86-0.224-1.5-1-1.5-1.929C6,17.224,6.224,17,6.5,17
			S7,17.224,7,17.5c0,0.551,0.448,1,1,1c0.551,0,1-0.449,1-1c0-0.552-0.449-1-1-1c-1.103,0-2-0.898-2-2c0-0.93,0.64-1.706,1.5-1.929
			V12c0-0.276,0.224-0.5,0.5-0.5c0.276,0,0.5,0.224,0.5,0.5v0.571c0.859,0.224,1.5,1,1.5,1.929c0,0.275-0.224,0.5-0.5,0.5
			S9,14.775,9,14.5c0-0.552-0.449-1-1-1c-0.552,0-1,0.448-1,1C7,15.051,7.448,15.5,8,15.5z"/>
		<path d="M16.5,0C12.364,0,9,3.365,9,7.5s3.364,7.5,7.5,7.5S24,11.635,24,7.5S20.636,0,16.5,0z M16.5,7
			c1.048,0,1.899,0.852,1.899,1.899c0,0.875-0.596,1.604-1.399,1.826v0.509c0,0.275-0.224,0.5-0.5,0.5s-0.5-0.225-0.5-0.5v-0.509
			c-0.805-0.222-1.4-0.951-1.4-1.826c0-0.275,0.224-0.5,0.5-0.5c0.276,0,0.5,0.225,0.5,0.5c0,0.496,0.404,0.901,0.9,0.901
			s0.899-0.405,0.899-0.901C17.399,8.403,16.996,8,16.5,8c-1.048,0-1.9-0.852-1.9-1.9c0-0.873,0.596-1.603,1.4-1.825V3.766
			c0-0.275,0.224-0.5,0.5-0.5s0.5,0.225,0.5,0.5v0.509c0.804,0.221,1.399,0.951,1.399,1.825c0,0.276-0.224,0.5-0.5,0.5
			c-0.276,0-0.5-0.224-0.5-0.5c0-0.496-0.403-0.9-0.899-0.9s-0.9,0.404-0.9,0.9S16.004,7,16.5,7z"/>
	</g>
</g>
<g id="Invisible_Shape">
	<rect fill="none" width="24" height="24"/>
</g>
</svg>
